<svg width="144" height="195" viewBox="0 0 144 195" fill="none" xmlns="http://www.w3.org/2000/svg">
<g filter="url(#filter0_d_1_36)">
<path fill-rule="evenodd" clip-rule="evenodd" d="M45.599 11.0055C44.164 13.1906 42.4536 16.4909 40.9771 19.9234C40.6638 20.6516 40.3074 21.4731 40.1849 21.7487C39.0362 24.3349 36.0063 32.6025 35.1567 35.469C34.5578 37.4894 33.7028 41.0711 33.3321 43.1122C33.2758 43.4223 33.1384 44.1553 33.0268 44.7411C32.7029 46.4407 32.0953 50.1654 31.8311 52.0711C31.6974 53.0359 31.5238 54.2665 31.4454 54.8056C31.367 55.3448 31.2963 56.2187 31.2883 56.7477C31.2749 57.6435 31.2923 57.7122 31.5435 57.7481C31.7202 57.7734 32.6228 57.2542 34.1619 56.2419C36.3308 54.8154 37.558 54.0143 43.4296 50.1916C44.594 49.4335 46.8416 47.9675 48.4243 46.9338C50.0071 45.9001 52.0937 44.5384 53.0612 43.9076C54.1134 43.2217 54.8993 42.7881 55.0168 42.8285C55.1249 42.8657 55.5966 43.269 56.065 43.7247C57.3481 44.973 62.6889 50.7553 62.7324 50.9436C62.8293 51.3618 62.3748 51.178 60.4954 50.0391C59.383 49.3649 58.3285 48.7284 58.1522 48.6246C57.631 48.3178 55.8709 47.2124 55.414 46.905C55.1816 46.7485 54.8667 46.6206 54.7142 46.6206C54.2687 46.6206 51.3008 48.726 38.8796 57.8534C25.9713 67.3388 24.446 68.4398 24.3499 68.3404C24.1486 68.1324 23.9459 58.5556 24.0307 53.2614C24.181 43.8643 24.8519 36.6861 26.2377 29.6426C26.7418 27.0801 27.5069 24.0466 28.0863 22.3126C28.5355 20.9682 28.5849 20.6824 28.3676 20.6844C28.1422 20.6866 26.5655 23.8966 25.6911 26.1342C23.2293 32.4332 21.4765 39.577 20.2494 48.3121C18.7254 59.1614 18.0184 69.4031 18.3559 75.7463C18.5108 78.6563 18.6241 79.261 19.0151 79.261C19.2656 79.261 20.5805 78.2232 29.4026 71.0633C35.9423 65.7557 37.5484 64.4499 40.8122 61.7855C47.8205 56.0647 54.3015 50.9697 54.7537 50.8255C55.1036 50.714 56.2555 51.1915 59.4214 52.7609C62.1714 54.124 62.601 54.4785 61.354 54.3557C60.6404 54.2855 57.3726 53.8335 56.2731 53.653C55.8259 53.5796 55.5007 53.5853 55.338 53.6697C54.994 53.8481 52.8852 55.6781 45.4879 62.2174C44.3907 63.1874 42.3147 65.0216 40.8746 66.2935C39.4345 67.5654 38.195 68.6634 38.12 68.7336C38.0451 68.8038 36.5902 70.1016 34.8867 71.6177C27.6713 78.0397 22.016 83.1514 18.2755 86.6322L16.4213 88.3577C16.1526 88.6077 16 88.9582 16 89.3252V89.3252C16 90.5354 16.8618 97.2465 17.6279 102.003C20.7181 121.186 26.3554 137.36 33.5222 147.605C34.6582 149.229 37.0262 152.33 37.2238 152.453C37.5173 152.635 37.4174 152.314 36.8896 151.379C33.9942 146.251 30.3845 137.123 28.587 130.383C27.7136 127.108 27.4786 126.142 26.8951 123.429C26.5522 121.834 26.4797 121.444 26.1052 119.169C25.9634 118.307 25.7942 117.292 25.7294 116.913C25.4376 115.209 24.8134 109.35 24.6062 106.37C24.447 104.081 24.4451 94.7402 24.6036 93.5142C24.6682 93.0149 24.8055 92.4422 24.9087 92.2414C25.1785 91.7172 28.4161 88.0763 35.4508 80.3859C36.6509 79.074 38.5817 76.9591 39.7414 75.6862C40.9012 74.4134 42.1372 73.0618 42.4881 72.6828C42.8388 72.3037 43.8817 71.1479 44.8054 70.1141C45.729 69.0804 46.5154 68.2065 46.5527 68.172C46.7008 68.0352 51.4881 62.5612 53.7415 59.9519C55.2376 58.2195 56.275 57.1234 56.5114 57.025C57.0681 56.7932 62.404 57.1269 62.5744 57.4041C62.6654 57.5519 62.572 57.5931 60.3022 58.407C59.1564 58.8178 58.1038 59.2302 57.963 59.3234C57.8222 59.4166 56.0563 62.1082 54.0388 65.3047C52.0212 68.5012 50.1894 71.3985 49.9681 71.743C49.4969 72.4768 41.0181 86.092 39.4341 88.6584C38.8387 89.6232 37.278 92.1279 35.966 94.2243C34.5684 96.4576 33.5805 98.1618 33.5805 98.3397C33.5805 98.716 34.3903 106.054 34.6487 108.017C35.745 116.353 36.7668 121.515 39.0011 130.007C39.7644 132.908 41.8891 140.097 42.7043 142.537C45.8914 152.076 49.6748 160.513 55.4451 170.949C55.9691 171.896 56.3978 172.728 56.3978 172.797C56.3978 172.866 56.4539 172.922 56.5225 172.922C56.5911 172.922 56.6472 172.886 56.6472 172.842C56.6472 172.798 56.2584 171.741 55.7832 170.493C54.0763 166.009 50.8775 156.518 50.1616 153.814C50.1068 153.607 49.9146 152.959 49.7341 152.373C49.5539 151.787 49.2999 150.913 49.17 150.431C48.9529 149.624 48.5462 148.151 47.9249 145.92C47.7209 145.188 46.9504 142.165 46.7433 141.284C46.7109 141.146 46.5162 140.329 46.3106 139.467C44.9835 133.906 43.7149 127.43 43.1196 123.178C42.5625 119.2 41.944 111.939 41.6144 105.511C41.3248 99.8605 41.2879 100.159 42.6143 97.4293C43.2171 96.1889 43.9766 94.6101 44.302 93.9209C44.9885 92.4665 48.9085 84.2996 52.7215 76.3791C57.6047 66.2356 59.3989 62.6031 59.6761 62.2989C60.1508 61.7781 62.5289 60.2634 62.8088 60.3035C62.973 60.3272 63.172 60.5479 63.3505 60.9047C63.6996 61.6028 64.7517 63.9165 64.7517 63.9861C64.7517 64.0143 63.8641 65.3765 62.7795 67.0131C59.9815 71.2348 59.9744 71.2487 59.9103 72.5959C59.7976 74.965 60.5828 80.9242 61.8938 87.6489C63.7934 97.3935 65.6317 103.857 68.3093 110.207L68.3239 110.242C68.4013 110.426 68.6581 110.435 68.7487 110.258V110.258C69.0386 109.69 69.7499 109.059 70.4808 108.721C71.3407 108.324 72.6961 108.363 73.6243 108.811C74.2723 109.124 74.9518 109.745 75.3041 110.345C75.3818 110.477 75.4846 110.548 75.5329 110.502C75.8382 110.21 77.6923 105.112 78.7148 101.752C79.2259 100.073 80.5893 94.8713 80.8332 93.6704C80.9032 93.3258 81.0441 92.6774 81.1464 92.2294C81.3281 91.4338 82.4596 85.7046 82.7055 84.3356C82.8249 83.6704 83.0874 82.0754 83.3344 80.514C83.8067 77.527 84.1341 73.8559 84.0532 72.4523C83.9832 71.2383 83.9083 71.0957 81.1938 67.0124C80.1054 65.3752 79.2151 64.0136 79.2151 63.9863C79.2151 63.9591 79.4326 63.4659 79.6987 62.8905C79.9647 62.3152 80.3065 61.5525 80.4583 61.1955C80.9408 60.0612 81.0014 60.0481 82.2489 60.8097C84.3748 62.1075 84.2117 61.8795 86.793 67.1618C88.0581 69.7504 89.3889 72.4886 89.7508 73.2466C90.1125 74.0047 90.9267 75.6962 91.5601 77.0056C92.1935 78.315 93.09 80.1757 93.5523 81.1405C94.0146 82.1053 95.1651 84.5016 96.1088 86.4657C97.0527 88.4297 98.1747 90.7697 98.6025 91.6656C99.0302 92.5615 100.071 94.7323 100.914 96.4896C102.132 99.0241 102.461 99.8227 102.506 100.352C102.663 102.177 101.931 113.619 101.275 119.607C100.489 126.774 98.496 136.847 96.1682 145.419C95.9062 146.384 95.5798 147.596 95.4429 148.113C95.1086 149.374 93.9911 153.298 93.7657 154.002C93.6664 154.312 93.3781 155.242 93.125 156.069C91.7906 160.43 89.2601 167.756 87.7369 171.669C87.3749 172.599 87.2278 173.228 87.4439 172.922C87.5168 172.819 88.0586 171.86 88.6477 170.792C92.8613 163.151 95.8663 156.852 98.6302 149.867C100.154 146.015 102.414 139.367 102.995 137.024C103.029 136.886 103.168 136.407 103.302 135.959C103.521 135.23 104.465 131.882 104.963 130.07C105.343 128.684 105.879 126.59 106.198 125.246C106.378 124.488 106.606 123.529 106.705 123.116C107.215 120.978 107.567 119.173 108.454 114.157C108.784 112.294 109.47 107.084 109.898 103.193C109.974 102.504 110.115 101.294 110.211 100.504C110.515 98.0152 110.738 98.6113 107.626 93.6023C105.223 89.7323 104.224 88.1296 102.242 84.9621C101.472 83.7328 95.898 74.7798 95.2592 73.7478C92.6113 69.47 86.3656 59.6621 86.1514 59.4457C86.0038 59.2965 85.0543 58.8855 84.0154 58.5211C82.9868 58.1604 81.9909 57.8105 81.8023 57.7437C81.6136 57.677 81.4594 57.5505 81.4594 57.4627C81.4594 57.2497 81.9494 57.1835 84.8482 57.0054C87.0627 56.8693 87.3319 56.8744 87.6108 57.0581C87.7808 57.17 88.8079 58.2927 89.8932 59.5529C94.2813 64.6483 98.718 69.6401 103.903 75.3147C107.143 78.8616 113.045 85.333 114.814 87.2801C117.338 90.0571 118.916 91.9441 119.142 92.4548C119.348 92.9206 119.395 93.4682 119.486 96.4986C119.583 99.6908 119.494 104.85 119.299 107.352C119.173 108.978 118.867 112.159 118.747 113.092C118.685 113.574 118.568 114.504 118.487 115.159C117.843 120.359 116.172 128.134 114.689 132.826C114.139 134.569 112.982 138.062 112.884 138.277C112.821 138.415 112.625 138.941 112.449 139.447C111.39 142.491 108.543 148.822 107.036 151.485C105.796 153.677 107.385 152.077 109.572 148.931C114.121 142.388 117.898 134.545 120.808 125.596C123.332 117.838 125.61 107.723 126.91 98.5135C127.302 95.7394 127.801 91.5026 127.913 89.9983L127.931 89.7617C127.975 89.1724 127.756 88.5939 127.333 88.1813L127.174 88.0266C126.263 87.137 121.293 82.555 119.239 80.7103C118.519 80.0636 116.976 78.6766 115.81 77.6278C113.073 75.1661 110.04 72.4493 108.944 71.4776C108.469 71.056 107.039 69.7874 105.767 68.6584C99.6122 63.1969 95.7288 59.7666 92.7352 57.1477C91.4368 56.0119 90.3463 55.0533 90.312 55.0176C90.0757 54.7724 88.832 53.7773 88.6287 53.6709C88.467 53.5863 88.1384 53.5787 87.6936 53.6494C85.764 53.9561 82.6025 54.39 82.301 54.3896C82.1014 54.3894 81.9581 54.3205 81.9581 54.2246C81.9581 54.0458 87.8063 51.1139 88.6422 50.8736C89.085 50.7464 89.2034 50.7573 89.515 50.9539C90.5439 51.6033 97.3265 57.0201 108.329 65.9796C115.513 71.8297 120.799 76.1064 123.005 77.8521C124.899 79.3523 125.231 79.4974 125.405 78.9049C125.575 78.3249 125.726 73.0958 125.655 70.2394C125.614 68.5855 125.47 65.6817 125.336 63.7865C125.003 59.0712 124.963 58.6459 124.355 53.3241C124.168 51.6848 123.749 48.513 123.535 47.113C123.425 46.3942 123.287 45.496 123.229 45.117C123.171 44.738 123.067 44.1459 122.999 43.8014C122.931 43.4568 122.809 42.8084 122.728 42.3604C121.691 36.6101 120.124 30.8795 118.344 26.3221C117.556 24.3053 116.18 21.4261 115.768 20.9343L115.689 20.8387C115.626 20.7638 115.504 20.807 115.502 20.9047V20.9047C115.5 21.0607 115.553 21.2863 115.619 21.4059C115.891 21.8946 117.161 26.56 117.555 28.5149C119.285 37.1059 119.908 44.2279 119.918 55.5168C119.925 62.5313 119.786 68.2527 119.606 68.3641C119.518 68.4187 118.887 67.9737 115.248 65.2901C114.64 64.8422 113.031 63.6644 111.672 62.6726C110.313 61.681 108.782 60.5533 108.269 60.1667C107.755 59.7801 107.213 59.3792 107.063 59.2758C106.638 58.9827 102.858 56.2285 102.718 56.1102C102.65 56.0521 101.612 55.2883 100.411 54.4127C99.2113 53.5371 97.967 52.6238 97.6462 52.3832C97.3255 52.1426 96.5521 51.5793 95.9276 51.1313C95.3032 50.6834 94.4435 50.0608 94.0172 49.7478C91.8289 48.1412 89.554 46.6206 89.3389 46.6206C89.1133 46.6206 88.4053 47.0348 83.3647 50.1163C81.6107 51.1885 81.1356 51.3727 81.2343 50.9419C81.2775 50.7534 86.8945 44.6832 88.0447 43.5821C88.4711 43.1737 88.9107 42.8616 89.0592 42.8616C89.2032 42.8616 90.2873 43.4976 91.4686 44.275C92.6497 45.0523 94.697 46.3914 96.018 47.2508C104.94 53.0551 107.134 54.4848 109.808 56.2413C111.329 57.2399 112.255 57.7723 112.427 57.7476C112.791 57.6955 112.827 57.0946 112.578 55.2662C112.469 54.4737 112.322 53.3742 112.251 52.8229C111.98 50.7389 111.343 46.8569 110.811 44.052C109.771 38.5716 108.852 35.1743 107.168 30.5823C107.029 30.2033 106.681 29.2447 106.395 28.4522C105.426 25.7657 103.688 21.4498 102.77 19.4533C102.57 19.0177 102.406 18.6353 102.406 18.6032C102.406 18.5713 101.868 17.4616 101.209 16.1373C100.172 14.0529 98.4561 11.0085 97.874 10.2215C97.4007 9.58145 97.583 10.337 98.3945 12.3791C101.871 21.1251 104.192 30.0825 105.39 39.371C105.644 41.3429 105.745 42.1851 106.086 45.1796C106.459 48.4587 106.507 48.837 106.589 49.1665C106.647 49.4005 106.624 49.5025 106.512 49.5025C106.366 49.5025 104.84 48.5399 98.2509 44.294C97.0282 43.5063 95.9763 42.8616 95.9131 42.8616C95.8498 42.8616 95.7981 42.8052 95.7981 42.7363C95.7981 42.6674 95.7461 42.611 95.6825 42.611C95.6191 42.611 95.2403 42.3927 94.8409 42.1261C94.4415 41.8593 93.6941 41.3699 93.1797 41.0383C92.6654 40.7067 92.0109 40.2766 91.7255 40.0824C91.44 39.888 91.1835 39.7291 91.1556 39.7291C91.1278 39.7291 90.6359 39.419 90.0626 39.04C89.4893 38.661 88.9158 38.3508 88.7881 38.3508C88.5549 38.3508 84.6725 42.2574 81.5344 45.6495C79.5674 47.7757 79.4436 47.8242 79.8547 46.3073C79.9854 45.8249 80.1054 45.1201 80.1213 44.7411C80.1466 44.1382 80.0925 43.958 79.688 43.3002C79.0607 42.28 77.7137 40.7496 76.5221 39.7029C75.499 38.8044 74.5181 38.1426 74.3941 38.2671C74.3547 38.3066 74.5259 38.6176 74.7745 38.9579C75.6081 40.099 76.2226 41.8104 76.2226 42.9905C76.2226 43.6953 75.9265 44.742 75.619 45.1236V45.1236C75.4779 45.2987 75.2554 45.3873 75.0326 45.3572L73.6991 45.1771C72.209 44.9759 71.8599 44.9678 70.7793 45.1086C70.1044 45.1966 69.295 45.297 68.9811 45.3319V45.3319C68.6415 45.3697 68.3168 45.1822 68.1797 44.8692L68.116 44.7237C67.3927 43.0711 67.8774 40.5927 69.2715 38.815C70.358 37.4293 68.2757 38.7781 66.4762 40.6257C65.2142 41.921 64.3165 43.077 63.9726 43.849C63.7541 44.3398 63.7436 44.479 63.8744 45.1646C63.9548 45.5864 64.1009 46.2095 64.1991 46.5494C64.2973 46.8892 64.3776 47.2134 64.3776 47.2699C64.3776 47.6155 63.8457 47.1715 62.436 45.6495C59.3891 42.3599 55.4206 38.3508 55.2112 38.3508C55.043 38.3508 50.1462 41.406 48.7797 42.3635C48.6014 42.4885 48.0964 42.8137 47.6575 43.0865C47.2185 43.3592 45.597 44.3935 44.054 45.3851C42.511 46.3766 40.8104 47.469 40.2746 47.8127C39.7389 48.1562 38.9381 48.677 38.495 48.9699C37.5733 49.579 37.2506 49.6509 37.3704 49.2205C37.4136 49.0654 37.6439 47.2471 37.882 45.1796C38.5509 39.3719 38.5608 39.2951 39.0624 35.9702C39.6293 32.2119 41.2848 24.7969 42.0557 22.5632C42.1152 22.3909 42.2614 21.9116 42.3809 21.4981C43.1226 18.9286 44.4824 15.0481 45.5203 12.5393C46.37 10.4854 46.5189 10.0325 46.3441 10.0344C46.2846 10.035 45.9493 10.4721 45.599 11.0055Z" fill="url(#paint0_linear_1_36)"/>
</g>
<defs>
<filter id="filter0_d_1_36" x="0" y="0" width="143.936" height="195" filterUnits="userSpaceOnUse" color-interpolation-filters="sRGB">
<feFlood flood-opacity="0" result="BackgroundImageFix"/>
<feColorMatrix in="SourceAlpha" type="matrix" values="0 0 0 0 0 0 0 0 0 0 0 0 0 0 0 0 0 0 127 0" result="hardAlpha"/>
<feOffset dy="6"/>
<feGaussianBlur stdDeviation="8"/>
<feComposite in2="hardAlpha" operator="out"/>
<feColorMatrix type="matrix" values="0 0 0 0 0 0 0 0 0 0 0 0 0 0 0 0 0 0 0.7 0"/>
<feBlend mode="normal" in2="BackgroundImageFix" result="effect1_dropShadow_1_36"/>
<feBlend mode="normal" in="SourceGraphic" in2="effect1_dropShadow_1_36" result="shape"/>
</filter>
<linearGradient id="paint0_linear_1_36" x1="72" y1="17.5" x2="34.008" y2="116.407" gradientUnits="userSpaceOnUse">
<stop stop-color="#EA1D22"/>
<stop offset="1" stop-color="#640204"/>
</linearGradient>
</defs>
</svg>
